Coordinates
version=1
nRows=11
nColumns=36
inDegrees=yes

Units are S.I. units (second, meters, Newtons, ...)
If the header above contains a line with 'inDegrees', this indicates whether rotational values are in degrees (yes) or radians (no).

endheader
time	pelvis_tilt	pelvis_list	pelvis_rotation	pelvis_tx	pelvis_ty	pelvis_tz	hip_flexion_r	hip_adduction_r	hip_rotation_r	knee_angle_r	knee_angle_r_beta	ankle_angle_r	subtalar_angle_r	mtp_angle_r	hip_flexion_l	hip_adduction_l	hip_rotation_l	knee_angle_l	knee_angle_l_beta	ankle_angle_l	subtalar_angle_l	mtp_angle_l	lumbar_extension	lumbar_bending	lumbar_rotation	arm_flex_r	arm_add_r	arm_rot_r	elbow_flex_r	pro_sup_r	arm_flex_l	arm_add_l	arm_rot_l	elbow_flex_l	pro_sup_l
      8.86666670	     -0.34983925	     11.35555068	     -3.91212173	      0.11393964	      0.94815571	      0.06383863	      4.97928476	     -2.86913281	     10.03607979	      3.56844818	      0.06228117	      2.36998897	      0.84245986	     -7.49999987	     35.37356151	      2.09656294	     -6.43327952	      9.56444149	      0.16693100	    -14.65070980	    -12.01787068	     -7.49999987	     -8.70698088	     -3.26202625	     11.61359134	     73.79191999	     10.92882049	     43.85900908	    141.97581636	     94.87878742	     92.81132557	     14.74092536	     71.77457012	    117.61412503	     82.17254401
      8.88333330	     -0.34668821	     11.42175521	     -3.94547971	      0.11546507	      0.94658085	      0.06362485	      4.94186906	     -2.96042966	      9.97433798	      3.59807830	      0.06279831	      2.19784859	      0.67039509	     -7.49999987	     35.25786861	      2.28571196	     -6.43259690	      9.41870217	      0.16438736	    -14.56902679	    -12.03959063	     -7.49999987	     -8.37739146	     -3.26278386	     11.17777379	     73.06812643	     12.20429752	     42.79732770	    141.74921585	     94.25065974	     92.63636766	     14.50493504	     71.62058103	    117.77584327	     82.99297295
      8.90000000	     -0.34094244	     11.41172979	     -4.06490767	      0.11503623	      0.94721261	      0.06375757	      4.92816332	     -2.96121588	      9.97075852	      3.61579472	      0.06310752	      2.43861933	      0.72895410	     -7.49999987	     35.26911510	      2.32759231	     -6.23690500	      9.49396257	      0.16570091	    -14.17777942	    -11.70887201	     -7.49999987	     -8.19230192	     -3.30047520	     11.19441213	     72.85319567	     12.23945375	     42.12259086	    142.16364630	     92.82676728	     92.52734755	     14.43626463	     71.73665763	    117.88786714	     81.93831709
      8.91666670	     -0.17358613	     11.36120835	     -4.21088103	      0.11510386	      0.94602072	      0.06297467	      4.71140264	     -2.93350910	     10.14208585	      3.60101789	      0.06284962	      2.61472835	      0.69219660	     -7.49999987	     35.19219777	      2.34007874	     -6.14631884	      9.53986005	      0.16650197	    -13.88869498	    -11.53721686	     -7.49999987	     -8.11007990	     -3.29090046	     11.35197892	     73.41239621	     11.69764051	     42.72096543	    142.55995583	     94.31621370	     92.28082138	     14.38326416	     71.56187880	    118.01424831	     82.86940092
      8.93333330	     -0.09368805	     11.32195561	     -4.21135940	      0.11413545	      0.94733421	      0.06340832	      4.59233622	     -2.90565984	     10.30249380	      3.49327688	      0.06096918	      2.68861259	      0.52409691	     -7.49999987	     35.22120429	      2.38316704	     -5.98830451	      9.57596767	      0.16713216	    -13.71226284	    -11.28886044	     -7.49999987	     -8.04053059	     -3.28512117	     11.91796867	     74.02202845	     10.86714175	     43.74471021	    142.90876242	     90.73985612	     92.04542346	     14.48008190	     71.62911826	    118.16959463	     78.73508283
      8.95000000	     -0.03791104	     11.29272450	     -4.19595116	      0.11603066	      0.94715909	      0.06330591	      4.45428852	     -2.92734743	     10.22210441	      3.36360579	      0.05870600	      2.88418862	      0.75952212	     -7.49999987	     35.20513144	      2.43400587	     -5.92259958	      9.65657354	      0.16853900	    -13.45677970	    -10.94947824	     -7.49999987	     -7.91859456	     -3.33833003	     12.16443960	     74.37734493	     10.33158359	     44.46350897	    142.94930822	     90.61841767	     91.86693173	     14.75151785	     71.83499458	    117.99390164	     78.71101182
      8.96666670	     -0.04948367	     11.31975767	     -4.29419583	      0.11528307	      0.94649158	      0.06276899	      4.50832268	     -2.93874017	     10.10328604	      3.49268120	      0.06095879	      3.19281784	      0.80565589	     -7.49999987	     35.38017230	      2.46442657	     -5.95549277	      9.73725896	      0.16994723	    -13.70062823	    -11.37504045	     -7.49999987	     -7.74747190	     -3.35719231	     12.29409872	     74.71396550	      9.86167313	     45.17482712	    142.77627612	     95.53361755	     91.66945593	     14.70146888	     71.56678429	    117.94284756	     82.88506635
      8.98333330	      0.02160661	     11.21746132	     -4.49407831	      0.11505598	      0.94672390	      0.06351076	      4.48542283	     -2.84314785	     10.35976893	      3.42064320	      0.05970149	      3.44648758	      0.78912386	     -7.49999987	     35.44675146	      2.31306306	     -5.94641412	      9.75786911	      0.17030694	    -13.62732673	    -11.04350053	     -7.49999987	     -7.64094907	     -3.30363502	     12.25705002	     74.66402326	      9.10849676	     45.68114996	    142.58196716	     94.11188037	     91.63179835	     14.47630511	     71.54475063	    117.67256277	     81.66305099
      9.00000000	     -0.06888905	     11.14970225	     -4.65252123	      0.11537183	      0.94522482	      0.06284042	      4.65157090	     -2.73314849	     10.38549695	      3.57452719	      0.06238727	      3.54286046	      0.60841269	     -7.49999987	     35.69393082	      2.19648904	     -5.88448457	      9.75994316	      0.17034314	    -13.85687492	    -11.43762969	     -7.49999987	     -7.27510460	     -3.12008280	     12.21758155	     75.25365242	      9.01778231	     47.49741889	    142.35894583	     95.83741361	     91.37662730	     14.08230388	     71.30251788	    118.06263673	     82.15397295
      9.01666670	     -0.20125389	     11.13017929	     -4.83847970	      0.11469882	      0.94639898	      0.06406114	      4.89546317	     -2.62002944	     10.36121924	      3.81679846	      0.06661570	      3.63417981	      0.61443833	     -7.49999987	     35.94470662	      2.05606980	     -5.90252667	      9.76917887	      0.17050434	    -13.84793746	    -11.47065648	     -7.49999987	     -7.05967812	     -3.03165156	     12.23357353	     76.33667402	      8.70729100	     49.79701326	    142.33278088	     96.66760716	     91.24859274	     13.89912251	     71.10559752	    118.78171507	     82.69013591
      9.03333330	     -0.20463189	     11.01387917	     -5.07905649	      0.11403645	      0.94614040	      0.06406135	      4.99472386	     -2.44594106	     10.60875785	      3.93701838	      0.06871393	      3.59437505	      0.46672642	     -7.49999987	     36.16571168	      1.78658418	     -5.89151163	      9.95237092	      0.17370164	    -14.01925725	    -11.67121710	     -7.49999987	     -6.97906542	     -2.92004850	     12.63701226	     77.12258471	      7.84020080	     51.55519014	    142.54682157	     95.47867925	     91.27929131	     13.91514891	     70.95065298	    118.85557829	     81.85157853
